<?xml version="1.0" encoding="UTF-8"?>
<svg width="41px" height="40px" viewBox="0 0 41 40" version="1.1" xmlns="http://www.w3.org/2000/svg" xmlns:xlink="http://www.w3.org/1999/xlink">
    <!-- Generator: Sketch 50 (54983) - http://www.bohemiancoding.com/sketch -->
    <title>Icon</title>
    <desc>Created with Sketch.</desc>
    <defs></defs>
    <g id="Page-1" stroke="none" stroke-width="1" fill="none" fill-rule="evenodd">
        <g id="01_AXON_Family_Office_Home" transform="translate(-478.000000, -1093.000000)" fill="#00B9F7" fill-rule="nonzero">
            <g id="Our_Services" transform="translate(268.000000, 615.000000)">
                <g id="01_Private_Equity" transform="translate(29.795059, 472.000000)">
                    <g id="Icon" transform="translate(181.000000, 6.000000)">
                        <path d="M33.9219531,24.7028906 C33.9205469,24.704375 33.9190625,24.7055469 33.9176563,24.7070312 L30.3951562,28.4320313 C30.0446875,27.2796094 29.1171094,26.3766406 27.9504687,26.0602344 C29.5474219,24.5625781 30.546875,22.435 30.546875,20.078125 C30.546875,19.4309375 30.0221875,18.90625 29.375,18.90625 L27.03125,18.90625 C24.7379688,18.90625 22.6619531,19.8525781 21.171875,21.3746875 L21.171875,16.40625 L31.71875,16.40625 C32.3659375,16.40625 32.890625,15.8815625 32.890625,15.234375 L32.890625,1.171875 C32.890625,0.5246875 32.3659375,0 31.71875,0 L8.28125,0 C7.6340625,0 7.109375,0.5246875 7.109375,1.171875 L7.109375,15.234375 C7.109375,15.8815625 7.6340625,16.40625 8.28125,16.40625 L18.828125,16.40625 L18.828125,21.3738281 C17.338125,19.851875 15.261875,18.90625 12.96875,18.90625 L10.625,18.90625 C9.9778125,18.90625 9.453125,19.4309375 9.453125,20.078125 C9.453125,21.4521875 9.80234375,22.8003906 10.4513281,23.995625 C9.87210937,24.2865625 9.320625,24.6499219 8.81023437,25.0865625 C8.173125,24.1845312 7.12328125,23.59375 5.9375,23.59375 L1.171875,23.59375 C0.5246875,23.59375 0,24.1184375 0,24.765625 L0,38.828125 C0,39.4753125 0.5246875,40 1.171875,40 L5.9375,40 C6.98992188,40 7.93515625,39.5345313 8.58,38.799375 C10.8189844,39.42875 13.2034375,40 16.5674219,40 L27.03125,40 C29.5994531,40 32.0527344,38.7733594 33.5890625,36.725 L39.2932812,29.2235937 C39.2940625,29.2225781 39.2946094,29.2214844 39.2953906,29.2204687 C39.2961719,29.219375 39.2971875,29.2185156 39.2979688,29.2174219 C39.7572656,28.6051563 40,27.8761719 40,27.109375 C40,23.925 36.0890625,22.39625 33.9219531,24.7028906 Z M7.109375,36.484375 C7.109375,37.1305469 6.58367187,37.65625 5.9375,37.65625 L2.34375,37.65625 L2.34375,25.9375 L5.9375,25.9375 C6.58367187,25.9375 7.109375,26.4632031 7.109375,27.109375 L7.109375,36.484375 Z M27.03125,21.25 L28.0853906,21.25 C27.5408594,23.9211719 25.1733594,25.9375 22.34375,25.9375 L21.2896094,25.9375 C21.8341406,23.2663281 24.2016406,21.25 27.03125,21.25 Z M30.546875,14.0625 L28.4046875,14.0625 C28.7583594,13.0653125 29.5496875,12.2739844 30.546875,11.9203125 L30.546875,14.0625 Z M30.546875,2.34375 L30.546875,4.4859375 C29.5496875,4.13226562 28.7583594,3.3409375 28.4046875,2.34375 L30.546875,2.34375 Z M9.453125,2.34375 L11.5953125,2.34375 C11.2416406,3.3409375 10.4503125,4.13226562 9.453125,4.4859375 L9.453125,2.34375 Z M9.453125,14.0625 L9.453125,11.9203125 C10.4503125,12.2739844 11.2416406,13.0653125 11.5953125,14.0625 L9.453125,14.0625 Z M14.0227344,14.0625781 C13.5554688,11.77 11.745625,9.96015625 9.453125,9.49289063 L9.453125,6.91335938 C11.745625,6.44617188 13.5554688,4.63625 14.0227344,2.34375 L25.9773438,2.34375 C26.4445313,4.63625 28.2544531,6.44617188 30.5469531,6.91335938 L30.5469531,9.49296875 C28.2544531,9.96015625 26.4446094,11.7700781 25.9773438,14.0625781 L14.0227344,14.0625781 Z M12.96875,21.25 C15.0872656,21.25 16.9467187,22.3802344 17.9760156,24.0692969 C16.3513281,23.211875 14.4978125,22.936875 12.7260937,23.244375 C12.3352344,22.6352344 12.0603906,21.9579687 11.915625,21.25 L12.96875,21.25 Z M37.4234375,27.8104688 L31.71875,35.3125 C30.6180469,36.7800781 28.8657031,37.65625 27.03125,37.65625 L16.5674219,37.65625 C13.845625,37.65625 11.6901563,37.2277344 9.43429688,36.59375 C9.43898438,36.4602344 9.4375,37.1710156 9.4375,27.6235938 L10.2697656,26.9205469 C12.4764844,24.9785938 15.8046875,24.9785938 18.0114844,26.9205469 C19.1964844,27.9632813 19.4103906,28.28125 20,28.28125 C20.8835938,28.28125 26.3090625,28.28125 27.03125,28.28125 C27.6774219,28.28125 28.203125,28.8069531 28.203125,29.453125 C28.203125,30.0992969 27.6774219,30.625 27.03125,30.625 L18.7026563,30.625 C18.0554688,30.625 17.5307813,31.1496875 17.5307813,31.796875 C17.5307813,32.4440625 18.0554688,32.96875 18.7026563,32.96875 L27.8167188,32.96875 C28.7873438,32.96875 29.7235938,32.5620313 30.3860938,31.8528125 L35.6205469,26.3173438 C35.6215625,26.31625 35.6223438,26.3151563 35.6233594,26.3140625 C35.624375,26.3129688 35.6255469,26.3120313 35.6265625,26.3109375 C35.8509375,26.0700781 36.1555469,25.9375 36.484375,25.9375 C37.4471875,25.9375 37.9990625,27.0422656 37.4234375,27.8104688 Z" id="Shape"></path>
                        <path d="M20,4.6875 C18.0614844,4.6875 16.484375,6.26460938 16.484375,8.203125 C16.484375,10.1416406 18.0614844,11.71875 20,11.71875 C21.9385156,11.71875 23.515625,10.1416406 23.515625,8.203125 C23.515625,6.26460938 21.9385156,4.6875 20,4.6875 Z M20,9.375 C19.3538281,9.375 18.828125,8.84929688 18.828125,8.203125 C18.828125,7.55695312 19.3538281,7.03125 20,7.03125 C20.6461719,7.03125 21.171875,7.55695312 21.171875,8.203125 C21.171875,8.84929688 20.6461719,9.375 20,9.375 Z" id="Shape"></path>
                    </g>
                </g>
            </g>
        </g>
    </g>
</svg>