<?xml version="1.0" encoding="UTF-8"?>
<svg width="41px" height="40px" viewBox="0 0 41 40" version="1.1" xmlns="http://www.w3.org/2000/svg" xmlns:xlink="http://www.w3.org/1999/xlink">
    <!-- Generator: Sketch 50 (54983) - http://www.bohemiancoding.com/sketch -->
    <title>Icon</title>
    <desc>Created with Sketch.</desc>
    <defs></defs>
    <g id="Page-1" stroke="none" stroke-width="1" fill="none" fill-rule="evenodd">
        <g id="01_AXON_Family_Office_Home" transform="translate(-940.000000, -1093.000000)" fill="#00B9F7" fill-rule="nonzero">
            <g id="Our_Services" transform="translate(268.000000, 615.000000)">
                <g id="02_Tax" transform="translate(491.397529, 478.000000)">
                    <g id="Icon" transform="translate(180.000000, 0.000000)">
                        <path d="M39.828125,21.171875 L30.3773437,21.171875 C31.1458594,19.3248437 31.546875,17.3311719 31.546875,15.3125 C31.546875,6.86914062 24.7127344,0 16.3125,0 C7.89,0 1,6.89171875 1,15.3125 C1,21.4646094 4.765625,27.0157031 10.453125,29.3789844 L10.453125,38.828125 C10.453125,39.4753125 10.9778125,40 11.625,40 L39.828125,40 C40.4753125,40 41,39.4753125 41,38.828125 L41,22.34375 C41,21.6965625 40.4753125,21.171875 39.828125,21.171875 Z M27.8103906,9.453125 C28.53375,10.8839062 29.0002344,12.4669531 29.1499219,14.140625 L24.4922656,14.140625 C24.428125,12.5128125 24.2307031,10.93375 23.9107031,9.453125 L27.8103906,9.453125 Z M29.1486719,16.46875 C28.9997656,18.1047656 28.5403125,19.7135156 27.795625,21.171875 L23.9053125,21.171875 C24.2279687,19.6865625 24.4263281,18.0857813 24.4911719,16.46875 L29.1486719,16.46875 Z M26.2890625,7.109375 L23.2739844,7.109375 C23.0021875,6.293125 22.6882031,5.52257812 22.3340625,4.80890625 C22.0973438,4.33179688 21.84625,3.88796875 21.5825781,3.47796875 C23.4190625,4.30890625 25.0282813,5.56023438 26.2890625,7.109375 Z M17.484375,2.6396875 C18.4775781,3.1378125 19.4396875,4.24867188 20.2346094,5.850625 C20.4326563,6.24976563 20.6164844,6.6703125 20.7858594,7.109375 L17.484375,7.109375 L17.484375,2.6396875 Z M17.484375,9.453125 L21.5089844,9.453125 C21.8599219,10.9100781 22.0767969,12.4934375 22.1466406,14.140625 L17.484375,14.140625 L17.484375,9.453125 Z M17.484375,16.46875 L22.145625,16.46875 C22.0746875,18.1017187 21.8563281,19.7079687 21.5013281,21.171875 L17.484375,21.171875 L17.484375,16.46875 Z M12.3903906,5.850625 C13.1853125,4.24867188 14.1474219,3.1378125 15.140625,2.6396875 L15.140625,7.109375 L11.8391406,7.109375 C12.0085156,6.6703125 12.1923438,6.24984375 12.3903906,5.850625 Z M16.1641406,23.5 C15.7392188,25.1447656 14.4416406,26.4580469 12.796875,26.8828906 C12.796875,25.8123438 12.796875,24.7792187 12.796875,23.5 L16.1641406,23.5 Z M11.0545313,3.45859375 C10.7863281,3.87390625 10.5313281,4.324375 10.2909375,4.80882812 C9.93679688,5.52257812 9.6228125,6.293125 9.35101562,7.10929688 L6.27546875,7.10929688 C7.55390625,5.54796875 9.18875,4.28945312 11.0545313,3.45859375 Z M4.74492188,9.4375 L8.71429687,9.4375 C8.39429687,10.918125 8.196875,12.5128125 8.13273437,14.140625 L3.39726563,14.140625 C3.54789063,12.4669531 4.0171875,10.8682813 4.74492188,9.4375 Z M4.77484375,21.171875 C4.02867187,19.7296875 3.5521875,18.1424219 3.39851562,16.484375 L8.133125,16.484375 C8.19882812,18.106875 8.40070312,19.6896875 8.72359375,21.171875 L4.77484375,21.171875 Z M10.453125,26.8003906 C8.84664062,25.9854688 7.45015625,24.8597656 6.33054687,23.515625 L9.364375,23.515625 C9.67515625,24.4446094 10.0392969,25.3104687 10.453125,26.0920313 L10.453125,26.8003906 Z M11.1160156,9.453125 L15.140625,9.453125 L15.140625,14.140625 L10.4783594,14.140625 C10.5482031,12.4934375 10.7650781,10.9100781 11.1160156,9.453125 Z M11.1242969,21.171875 C10.7713281,19.7157812 10.5505469,18.1275 10.4790625,16.484375 L15.140625,16.484375 L15.140625,21.171875 L11.625,21.171875 L11.1242969,21.171875 Z M12.796875,37.65625 L12.796875,34.2889844 C14.4416406,34.7139063 15.7392969,36.0114844 16.1641406,37.65625 L12.796875,37.65625 Z M38.65625,37.65625 L35.2889844,37.65625 C35.7139063,36.0114844 37.0114844,34.7138281 38.65625,34.2889844 L38.65625,37.65625 Z M38.65625,31.8950781 C35.7163281,32.3903906 33.3903906,34.7163281 32.8950781,37.65625 L18.5580469,37.65625 C18.0627344,34.7163281 15.7367969,32.3903906 12.796875,31.8950781 L12.796875,29.2767969 C15.7367969,28.7814062 18.0627344,26.4554688 18.5580469,23.515625 C19.1067969,23.515625 32.3544531,23.515625 32.8950781,23.515625 C33.3903906,26.4555469 35.7163281,28.7814844 38.65625,29.2767969 L38.65625,31.8950781 Z M38.65625,26.8828906 C37.0114844,26.4579687 35.7138281,25.1603906 35.2889844,23.515625 L38.65625,23.515625 L38.65625,26.8828906 Z" id="Shape"></path>
                        <path d="M25.6875,25.859375 C23.1028125,25.859375 21,27.9621875 21,30.546875 C21,33.1265625 23.0840625,35.3125 25.6875,35.3125 C28.2935937,35.3125 30.375,33.1245313 30.375,30.546875 C30.375,27.9621875 28.2721875,25.859375 25.6875,25.859375 Z M25.6875,32.96875 C24.4170313,32.96875 23.34375,31.8596875 23.34375,30.546875 C23.34375,29.2545312 24.3951563,28.203125 25.6875,28.203125 C26.9798437,28.203125 28.03125,29.2545313 28.03125,30.546875 C28.03125,31.8596875 26.9579687,32.96875 25.6875,32.96875 Z" id="Shape"></path>
                    </g>
                </g>
            </g>
        </g>
    </g>
</svg>