<?xml version="1.0" encoding="UTF-8"?>
<svg width="40px" height="40px" viewBox="0 0 40 40" version="1.1" xmlns="http://www.w3.org/2000/svg" xmlns:xlink="http://www.w3.org/1999/xlink">
    <!-- Generator: Sketch 50 (54983) - http://www.bohemiancoding.com/sketch -->
    <title>Icon</title>
    <desc>Created with Sketch.</desc>
    <defs></defs>
    <g id="Page-1" stroke="none" stroke-width="1" fill="none" fill-rule="evenodd">
        <g id="01_AXON_Family_Office_Home" transform="translate(-1402.000000, -1093.000000)" fill="#00B9F7" fill-rule="nonzero">
            <g id="Our_Services" transform="translate(268.000000, 615.000000)">
                <g id="03_Reat_Estate" transform="translate(953.000000, 478.000000)">
                    <g id="Icon" transform="translate(181.000000, 0.000000)">
                        <path d="M38.828125,11.796875 L30.546875,11.796875 L30.546875,7.03125 L31.71875,7.03125 C32.3659375,7.03125 32.890625,6.5065625 32.890625,5.859375 L32.890625,1.171875 C32.890625,0.5246875 32.3659375,0 31.71875,0 L8.28125,0 C7.6340625,0 7.109375,0.5246875 7.109375,1.171875 L7.109375,5.859375 C7.109375,6.5065625 7.6340625,7.03125 8.28125,7.03125 L9.453125,7.03125 L9.453125,11.796875 L1.171875,11.796875 C0.5246875,11.796875 0,12.3215625 0,12.96875 L0,38.828125 C0,39.4753125 0.5246875,40 1.171875,40 L10.625,40 L29.375,40 L38.828125,40 C39.4753125,40 40,39.4753125 40,38.828125 L40,12.96875 C40,12.3215625 39.4753125,11.796875 38.828125,11.796875 Z M2.34375,18.828125 L4.6875,18.828125 L4.6875,21.171875 L2.34375,21.171875 L2.34375,18.828125 Z M2.34375,28.203125 L4.6875,28.203125 L4.6875,30.546875 L2.34375,30.546875 L2.34375,28.203125 Z M9.453125,37.65625 L2.34375,37.65625 L2.34375,32.890625 L5.859375,32.890625 C6.5065625,32.890625 7.03125,32.3659375 7.03125,31.71875 L7.03125,27.03125 C7.03125,26.3840625 6.5065625,25.859375 5.859375,25.859375 L2.34375,25.859375 L2.34375,23.515625 L5.859375,23.515625 C6.5065625,23.515625 7.03125,22.9909375 7.03125,22.34375 L7.03125,17.65625 C7.03125,17.0090625 6.5065625,16.484375 5.859375,16.484375 L2.34375,16.484375 L2.34375,14.140625 L9.453125,14.140625 L9.453125,37.65625 Z M18.828125,37.65625 L16.484375,37.65625 L16.484375,28.203125 L18.828125,28.203125 L18.828125,37.65625 Z M23.515625,37.65625 L21.171875,37.65625 L21.171875,28.203125 L23.515625,28.203125 L23.515625,37.65625 Z M28.203125,37.65625 L25.859375,37.65625 L25.859375,27.03125 C25.859375,26.3840625 25.3346875,25.859375 24.6875,25.859375 L15.3125,25.859375 C14.6653125,25.859375 14.140625,26.3840625 14.140625,27.03125 L14.140625,37.65625 L11.796875,37.65625 L11.796875,21.171875 L28.203125,21.171875 L28.203125,37.65625 Z M14.140625,14.140625 L14.140625,18.828125 L11.796875,18.828125 L11.796875,14.140625 L14.140625,14.140625 Z M11.796875,11.796875 L11.796875,7.03125 L14.140625,7.03125 L14.140625,11.796875 L11.796875,11.796875 Z M18.828125,14.140625 L18.828125,18.828125 L16.484375,18.828125 L16.484375,14.140625 L18.828125,14.140625 Z M16.484375,11.796875 L16.484375,7.03125 L18.828125,7.03125 L18.828125,11.796875 L16.484375,11.796875 Z M23.515625,14.140625 L23.515625,18.828125 L21.171875,18.828125 L21.171875,14.140625 L23.515625,14.140625 Z M21.171875,11.796875 L21.171875,7.03125 L23.515625,7.03125 L23.515625,11.796875 L21.171875,11.796875 Z M28.203125,18.828125 L25.859375,18.828125 L25.859375,14.140625 L28.203125,14.140625 L28.203125,18.828125 Z M28.203125,11.796875 L25.859375,11.796875 L25.859375,7.03125 L28.203125,7.03125 L28.203125,11.796875 Z M9.453125,4.6875 L9.453125,2.34375 L30.546875,2.34375 L30.546875,4.6875 L9.453125,4.6875 Z M37.65625,30.546875 L35.3125,30.546875 L35.3125,28.203125 L37.65625,28.203125 L37.65625,30.546875 Z M37.65625,21.171875 L35.3125,21.171875 L35.3125,18.828125 L37.65625,18.828125 L37.65625,21.171875 Z M37.65625,16.484375 L34.140625,16.484375 C33.4934375,16.484375 32.96875,17.0090625 32.96875,17.65625 L32.96875,22.34375 C32.96875,22.9909375 33.4934375,23.515625 34.140625,23.515625 L37.65625,23.515625 L37.65625,25.859375 L34.140625,25.859375 C33.4934375,25.859375 32.96875,26.3840625 32.96875,27.03125 L32.96875,31.71875 C32.96875,32.3659375 33.4934375,32.890625 34.140625,32.890625 L37.65625,32.890625 L37.65625,37.65625 L30.546875,37.65625 L30.546875,14.140625 L37.65625,14.140625 L37.65625,16.484375 Z" id="Shape"></path>
                    </g>
                </g>
            </g>
        </g>
    </g>
</svg>