<?xml version="1.0" encoding="UTF-8"?>
<svg width="40px" height="40px" viewBox="0 0 40 40" version="1.1" xmlns="http://www.w3.org/2000/svg" xmlns:xlink="http://www.w3.org/1999/xlink">
    <!-- Generator: Sketch 50 (54983) - http://www.bohemiancoding.com/sketch -->
    <title>Icon</title>
    <desc>Created with Sketch.</desc>
    <defs></defs>
    <g id="Page-1" stroke="none" stroke-width="1" fill="none" fill-rule="evenodd">
        <g id="01_AXON_Family_Office_Home" transform="translate(-479.000000, -1377.000000)" fill="#00B9F7" fill-rule="nonzero">
            <g id="Our_Services" transform="translate(268.000000, 615.000000)">
                <g id="04_Investment_Management" transform="translate(30.000000, 762.000000)">
                    <g id="Icon" transform="translate(181.000000, 0.000000)">
                        <path d="M32.96875,24.765625 C32.96875,25.4128125 33.4934375,25.9375 34.140625,25.9375 L38.828125,25.9375 C38.8289063,25.9375 38.8296875,25.9373438 38.8304687,25.9373438 C39.4446875,25.9360937 39.9807031,25.4489063 39.9983594,24.7976562 C39.9986719,24.786875 40,24.7764062 40,24.765625 L40,20.078125 C40,19.4309375 39.4753125,18.90625 38.828125,18.90625 C38.1809375,18.90625 37.65625,19.4309375 37.65625,20.078125 L37.65625,21.9529687 L30.2001562,14.5585156 C29.7419531,14.1040625 29.0026563,14.105625 28.5463281,14.5619531 L19.9575781,23.1507812 L4.765625,9.47804688 L4.765625,1.171875 C4.765625,0.5246875 4.2409375,0 3.59375,0 C2.9465625,0 2.421875,0.5246875 2.421875,1.171875 L2.421875,4.84375 L1.171875,4.84375 C0.5246875,4.84375 0,5.3684375 0,6.015625 C0,6.6628125 0.5246875,7.1875 1.171875,7.1875 L2.421875,7.1875 L2.421875,9.53125 L1.171875,9.53125 C0.5246875,9.53125 0,10.0559375 0,10.703125 C0,11.3503125 0.5246875,11.875 1.171875,11.875 L2.421875,11.875 L2.421875,14.21875 L1.171875,14.21875 C0.5246875,14.21875 0,14.7434375 0,15.390625 C0,16.0378125 0.5246875,16.5625 1.171875,16.5625 L2.421875,16.5625 L2.421875,18.90625 L1.171875,18.90625 C0.5246875,18.90625 0,19.4309375 0,20.078125 C0,20.7253125 0.5246875,21.25 1.171875,21.25 L2.421875,21.25 L2.421875,23.59375 L1.171875,23.59375 C0.5246875,23.59375 0,24.1184375 0,24.765625 C0,25.4128125 0.5246875,25.9375 1.171875,25.9375 L2.421875,25.9375 L2.421875,28.28125 L1.171875,28.28125 C0.5246875,28.28125 0,28.8059375 0,29.453125 C0,30.1003125 0.5246875,30.625 1.171875,30.625 L2.421875,30.625 L2.421875,32.96875 L1.171875,32.96875 C0.5246875,32.96875 0,33.4934375 0,34.140625 C0,34.7878125 0.5246875,35.3125 1.171875,35.3125 L2.421875,35.3125 L2.421875,36.484375 C2.421875,37.1315625 2.9465625,37.65625 3.59375,37.65625 L4.765625,37.65625 L4.765625,38.828125 C4.765625,39.4753125 5.2903125,40 5.9375,40 C6.5846875,40 7.109375,39.4753125 7.109375,38.828125 L7.109375,37.65625 L9.453125,37.65625 L9.453125,38.828125 C9.453125,39.4753125 9.9778125,40 10.625,40 C11.2721875,40 11.796875,39.4753125 11.796875,38.828125 L11.796875,37.65625 L14.140625,37.65625 L14.140625,38.828125 C14.140625,39.4753125 14.6653125,40 15.3125,40 C15.9596875,40 16.484375,39.4753125 16.484375,38.828125 L16.484375,37.65625 L18.828125,37.65625 L18.828125,38.828125 C18.828125,39.4753125 19.3528125,40 20,40 C20.6471875,40 21.171875,39.4753125 21.171875,38.828125 L21.171875,37.65625 L23.515625,37.65625 L23.515625,38.828125 C23.515625,39.4753125 24.0403125,40 24.6875,40 C25.3346875,40 25.859375,39.4753125 25.859375,38.828125 L25.859375,37.65625 L28.203125,37.65625 L28.203125,38.828125 C28.203125,39.4753125 28.7278125,40 29.375,40 C30.0221875,40 30.546875,39.4753125 30.546875,38.828125 L30.546875,37.65625 L32.96875,37.65625 L32.96875,38.828125 C32.96875,39.4753125 33.4934375,40 34.140625,40 C34.7878125,40 35.3125,39.4753125 35.3125,38.828125 L35.3125,37.65625 L38.828125,37.65625 C39.4753125,37.65625 40,37.1315625 40,36.484375 C40,35.8371875 39.4753125,35.3125 38.828125,35.3125 L30.546875,35.3125 L30.546875,18.2032812 L35.9822656,23.59375 L34.140625,23.59375 C33.4934375,23.59375 32.96875,24.1184375 32.96875,24.765625 Z M9.453125,35.3125 L4.765625,35.3125 L4.765625,12.6313281 L9.453125,16.8500781 L9.453125,35.3125 Z M18.828125,35.3125 L11.796875,35.3125 L11.796875,18.9594531 L18.828125,25.2875781 L18.828125,35.3125 Z M28.203125,35.3125 L21.171875,35.3125 L21.171875,25.2510156 L28.203125,18.2197656 L28.203125,35.3125 Z" id="Shape"></path>
                    </g>
                </g>
            </g>
        </g>
    </g>
</svg>