<?xml version="1.0" encoding="UTF-8"?>
<svg width="40px" height="41px" viewBox="0 0 40 41" version="1.1" xmlns="http://www.w3.org/2000/svg" xmlns:xlink="http://www.w3.org/1999/xlink">
    <!-- Generator: Sketch 50 (54983) - http://www.bohemiancoding.com/sketch -->
    <title>Icon</title>
    <desc>Created with Sketch.</desc>
    <defs></defs>
    <g id="Page-1" stroke="none" stroke-width="1" fill="none" fill-rule="evenodd">
        <g id="01_AXON_Family_Office_Home" transform="translate(-940.000000, -1376.000000)" fill="#00B9F7" fill-rule="nonzero">
            <g id="Our_Services" transform="translate(268.000000, 615.000000)">
                <g id="05_Labor_Employment" transform="translate(491.000000, 761.000000)">
                    <g id="Icon" transform="translate(181.000000, 0.000000)">
                        <path d="M39.0661905,20.320873 L36.4163492,17.3484127 C35.9488095,16.8239683 35.6480952,16.1261905 35.5224603,15.2746825 C34.1234921,5.78753968 25.3696825,-1.13714286 15.4783333,0.15531746 C7.22,1.23420635 0.652222222,8.2697619 0.0663492063,16.6553175 C-0.202936508,20.5095238 0.738412698,24.2553175 2.78873016,27.4879365 C4.87571429,30.7783333 4.84285714,33.6468254 4.79730159,37.6168254 C4.79063492,38.2046032 4.78365079,38.8125397 4.78365079,39.4443651 C4.78365079,40.1018254 5.31666667,40.6349206 5.97420635,40.6349206 L27.4037302,40.6349206 C28.0611905,40.6349206 28.5942857,40.1019048 28.5942857,39.4443651 L28.5942857,35.7388889 L29.575,35.7734921 C32.9400794,35.892381 35.7374603,33.204127 35.7374603,29.8245238 L35.7374603,26.269127 L36.4002381,26.269127 C39.4863492,26.2692063 41.1175397,22.6219841 39.0661905,20.320873 Z M36.4001587,23.8881746 L34.5468254,23.8881746 C33.8893651,23.8881746 33.3562698,24.4211905 33.3562698,25.0787302 L33.3562698,29.8246825 C33.3562698,31.8544444 31.6754762,33.4664286 29.6588095,33.3940476 L27.4456349,33.3159524 C26.7748413,33.2905556 26.2130952,33.8311111 26.2130952,34.5057937 L26.2130952,38.2539683 L7.22809524,38.2539683 C7.27214286,33.9298413 7.38333333,30.2869048 4.79936508,26.2127778 C3.02325397,23.412381 2.20801587,20.165 2.44166667,16.8214286 C2.94642857,9.59420635 8.68373016,3.44444444 15.7869048,2.51650794 C24.1434921,1.4247619 31.9403175,7.30396825 33.1669841,15.6221429 C33.3615079,16.9416667 33.856746,18.0555556 34.6392063,18.9330952 L37.2888889,21.9054762 C37.9726984,22.672381 37.4283333,23.8881746 36.4001587,23.8881746 Z" id="Shape"></path>
                        <path d="M17.8793651,16.745 C17.2229365,16.745 16.6888095,16.2109524 16.6888095,15.5544444 C16.6888095,15.0749206 16.9742063,14.6442063 17.4157143,14.4571429 C17.9488889,14.2313492 18.5869048,14.424127 19.1665079,14.9856349 C19.6388095,15.4431746 20.392381,15.4311905 20.85,14.9590476 C21.3074603,14.4868254 21.2955556,13.7330952 20.8233333,13.2756349 C20.285873,12.7549206 19.6883333,12.3869048 19.0698413,12.179127 L19.0698413,10.7923016 C19.0698413,10.1348413 18.5368254,9.60174603 17.8792857,9.60174603 C17.2218254,9.60174603 16.6887302,10.1347619 16.6887302,10.7923016 L16.6887302,12.1869048 C16.6211905,12.2109524 16.5538889,12.2363492 16.4871429,12.2646032 C15.1630952,12.8252381 14.3076984,14.1165873 14.3076984,15.5543651 C14.3076984,17.5237302 15.9099206,19.1259524 17.8792857,19.1259524 C18.5357143,19.1259524 19.0698413,19.66 19.0698413,20.3165079 C19.0698413,20.8153968 18.7551587,21.2652381 18.2868254,21.435873 C17.6757143,21.6587302 16.9634127,21.3565873 16.3338889,20.6069841 C15.9111111,20.1035714 15.1601587,20.0381746 14.6565079,20.4610317 C14.1530159,20.8838889 14.0876984,21.6349206 14.5105556,22.1384127 C15.154127,22.9046032 15.9034127,23.4301587 16.6888095,23.6946825 L16.6888095,25.0788095 C16.6888095,25.7362698 17.2218254,26.2693651 17.8793651,26.2693651 C18.5369048,26.2693651 19.0699206,25.7363492 19.0699206,25.0788095 L19.0699206,23.684127 C19.0805556,23.6803968 19.0911905,23.6771429 19.101746,23.673254 C20.5069048,23.1615079 21.4509524,21.8125397 21.4509524,20.3166667 C21.4509524,18.3471429 19.8488095,16.745 17.8793651,16.745 Z" id="Shape"></path>
                        <path d="M17.8793651,4.83968254 C10.6583333,4.83968254 4.78357143,10.7144444 4.78357143,17.9354762 C4.78357143,25.1565079 10.6583333,31.0312698 17.8793651,31.0312698 C25.1003968,31.0312698 30.9751587,25.1565079 30.9751587,17.9354762 C30.9751587,10.7144444 25.1005556,4.83968254 17.8793651,4.83968254 Z M17.8793651,28.6502381 C11.9712698,28.6502381 7.16460317,23.8435714 7.16460317,17.9354762 C7.16460317,12.027381 11.9712698,7.22071429 17.8793651,7.22071429 C23.7874603,7.22071429 28.594127,12.027381 28.594127,17.9354762 C28.594127,23.8436508 23.787619,28.6502381 17.8793651,28.6502381 Z" id="Shape"></path>
                    </g>
                </g>
            </g>
        </g>
    </g>
</svg>