<?xml version="1.0" encoding="UTF-8"?>
<svg width="40px" height="40px" viewBox="0 0 40 40" version="1.1" xmlns="http://www.w3.org/2000/svg" xmlns:xlink="http://www.w3.org/1999/xlink">
    <!-- Generator: Sketch 50 (54983) - http://www.bohemiancoding.com/sketch -->
    <title>Icon</title>
    <desc>Created with Sketch.</desc>
    <defs></defs>
    <g id="Page-1" stroke="none" stroke-width="1" fill="none" fill-rule="evenodd">
        <g id="01_AXON_Family_Office_Home" transform="translate(-1402.000000, -1377.000000)" fill="#00B9F7" fill-rule="nonzero">
            <g id="Our_Services" transform="translate(268.000000, 615.000000)">
                <g id="06_Intellectual_Property" transform="translate(953.000000, 762.000000)">
                    <g id="Icon" transform="translate(181.000000, 0.000000)">
                        <path d="M34.0501562,5.7615625 C30.2753906,2.04617187 25.2848437,0 19.9978125,0 C14.7107812,0 9.72054687,2.04601562 5.94640625,5.76125 C2.16820312,9.48046875 0.0571875,14.4321094 0.002265625,19.7041406 C-0.004375,20.3438281 0.503203125,20.8707031 1.1428125,20.8878125 C1.784375,20.9058594 2.31734375,20.4058594 2.34492187,19.7667187 C2.34914062,19.6692187 2.35742187,19.5709375 2.36960937,19.4746094 C2.36960937,19.4745312 2.36960937,19.4744531 2.36960937,19.474375 C2.59101562,17.7252344 4.0903125,16.40625 5.8571875,16.40625 C7.79570312,16.40625 9.3728125,17.9833594 9.3728125,19.921875 C9.3728125,20.5690625 9.8975,21.09375 10.5446875,21.09375 C11.191875,21.09375 11.7165625,20.5690625 11.7165625,19.921875 C11.7165625,17.9833594 13.2936719,16.40625 15.2321875,16.40625 C17.1802344,16.40625 18.8259375,18.0161719 18.8259375,19.921875 L18.8259375,35.3126563 C18.8259375,36.6049219 17.7745312,37.65625 16.4821875,37.65625 C15.1898437,37.65625 14.1384375,36.6048438 14.1384375,35.3125 C14.1384375,34.6653125 13.61375,34.140625 12.9665625,34.140625 C12.319375,34.140625 11.7946875,34.6653125 11.7946875,35.3125 C11.7946875,37.8971875 13.8975,40 16.4821875,40 C19.066875,40 21.1696875,37.8972656 21.1696875,35.3126563 L21.1696875,19.921875 C21.1696875,18.0161719 22.8153906,16.40625 24.7634375,16.40625 C26.7019531,16.40625 28.2790625,17.9833594 28.2790625,19.921875 C28.2790625,20.5690625 28.80375,21.09375 29.4509375,21.09375 C30.098125,21.09375 30.6228125,20.5690625 30.6228125,19.921875 C30.6228125,17.9833594 32.1999219,16.40625 34.1384375,16.40625 C36.0265625,16.40625 37.5708594,17.8835156 37.6542187,19.7694531 C37.6819531,20.3975 38.1995312,20.8896094 38.824375,20.8895313 C38.8353125,20.8895313 38.8461719,20.889375 38.8571094,20.8890625 C39.4964844,20.8715625 40.0036719,20.3446875 39.9967969,19.7051563 C39.9404687,14.4328125 37.8285937,9.48085937 34.0501562,5.7615625 Z M9.63703125,15.4482031 C8.61601563,14.5841406 7.29640625,14.0625 5.8571875,14.0625 C4.87898437,14.0625 3.94992188,14.3053125 3.13179688,14.7365625 C4.77210937,9.48164063 8.83835937,5.265625 14.0049219,3.39359375 C13.3865625,4.18015625 12.8096094,5.0953125 12.2839844,6.13445313 C10.9589063,8.754375 10.0546875,11.965 9.63703125,15.4482031 Z M18.8259375,15.2721094 C17.7925,14.4885156 16.5417969,14.0625 15.2321875,14.0625 C14.0630469,14.0625 12.9730469,14.4071875 12.0577344,14.9995313 C12.4738281,12.0724219 13.2620313,9.39375 14.3754688,7.19226563 C15.6317969,4.7084375 17.2070312,3.07921875 18.8259375,2.54054687 L18.8259375,15.2721094 Z M24.7634375,14.0625 C23.45375,14.0625 22.2030469,14.4885156 21.1696875,15.2721094 L21.1696875,2.54054687 C22.7885937,3.07921875 24.3638281,4.7084375 25.6201562,7.19226563 C26.7335937,9.39375 27.5217969,12.0724219 27.9378906,14.9995313 C27.0225,14.4071875 25.9325781,14.0625 24.7634375,14.0625 Z M34.1383594,14.0625 C32.6991406,14.0625 31.3795312,14.5841406 30.3585156,15.4482031 C29.9407812,11.965 29.0366406,8.754375 27.7115625,6.13445313 C27.1860156,5.09539063 26.6091406,4.1803125 25.9907812,3.39375 C31.1547656,5.26507813 35.2202344,9.47796875 36.8633594,14.7296094 C36.0489062,14.3030469 35.1215625,14.0625 34.1383594,14.0625 Z" id="Shape"></path>
                        <path d="M31.7946875,23.59375 C27.7115625,23.59375 23.5915625,24.6808594 23.5915625,27.109375 C23.5915625,27.5213281 23.5915625,36.0732031 23.5915625,36.484375 C23.5915625,38.9128906 27.7115625,40 31.7946875,40 C35.8778125,40 39.9978125,38.9128906 39.9978125,36.484375 C39.9978125,36.0724219 39.9978125,27.5205469 39.9978125,27.109375 C39.9978125,24.6808594 35.8777344,23.59375 31.7946875,23.59375 Z M31.7946875,25.9375 C35.0336719,25.9375 36.9975,26.67625 37.5477344,27.109375 C36.9975,27.5425 35.0336719,28.28125 31.7946875,28.28125 C28.5557031,28.28125 26.591875,27.5425 26.0416406,27.109375 C26.591875,26.67625 28.5557031,25.9375 31.7946875,25.9375 Z M37.6540625,36.3845313 C37.3108594,36.7914063 35.2996875,37.65625 31.7946875,37.65625 C28.2896094,37.65625 26.2785156,36.7914063 25.9353125,36.3845313 L25.9353125,34.3766406 C27.4977344,35.0126562 29.6511719,35.3125 31.7946875,35.3125 C33.9382031,35.3125 36.0916406,35.0126562 37.6540625,34.3766406 L37.6540625,36.3845313 Z M37.6540625,31.6970312 C37.3108594,32.1039063 35.2997656,32.96875 31.7946875,32.96875 C28.2896094,32.96875 26.2785156,32.1039063 25.9353125,31.6970312 L25.9353125,29.6891406 C27.4977344,30.3251562 29.6511719,30.625 31.7946875,30.625 C33.9382031,30.625 36.0916406,30.3251562 37.6540625,29.6891406 L37.6540625,31.6970312 Z" id="Shape"></path>
                    </g>
                </g>
            </g>
        </g>
    </g>
</svg>