<?xml version="1.0" encoding="UTF-8"?>
<svg width="168px" height="244px" viewBox="0 0 168 244" version="1.1" xmlns="http://www.w3.org/2000/svg" xmlns:xlink="http://www.w3.org/1999/xlink">
    <!-- Generator: Sketch 50 (54983) - http://www.bohemiancoding.com/sketch -->
    <title>Combined Shape</title>
    <desc>Created with Sketch.</desc>
    <defs></defs>
    <g id="Page-1" stroke="none" stroke-width="1" fill="none" fill-rule="evenodd">
        <g id="01_AXON_Family_Office_Home" transform="translate(-152.000000, -2342.000000)" fill="#EEF2F7">
            <g id="Meet_the_Team" transform="translate(152.000000, 1744.000000)">
                <g id="Left---People">
                    <g id="People-3" transform="translate(0.000000, 458.000000)">
                        <path d="M6,152 C2.6862915,152 0,149.313708 0,146 C0,142.686292 2.6862915,140 6,140 C9.3137085,140 12,142.686292 12,146 C12,149.313708 9.3137085,152 6,152 Z M37,152 C33.6862915,152 31,149.313708 31,146 C31,142.686292 33.6862915,140 37,140 C40.3137085,140 43,142.686292 43,146 C43,149.313708 40.3137085,152 37,152 Z M68,152 C64.6862915,152 62,149.313708 62,146 C62,142.686292 64.6862915,140 68,140 C71.3137085,140 74,142.686292 74,146 C74,149.313708 71.3137085,152 68,152 Z M99,152 C95.6862915,152 93,149.313708 93,146 C93,142.686292 95.6862915,140 99,140 C102.313708,140 105,142.686292 105,146 C105,149.313708 102.313708,152 99,152 Z M129,152 C125.686292,152 123,149.313708 123,146 C123,142.686292 125.686292,140 129,140 C132.313708,140 135,142.686292 135,146 C135,149.313708 132.313708,152 129,152 Z M162,152 C158.686292,152 156,149.313708 156,146 C156,142.686292 158.686292,140 162,140 C165.313708,140 168,142.686292 168,146 C168,149.313708 165.313708,152 162,152 Z M6,190 C2.6862915,190 0,187.313708 0,184 C0,180.686292 2.6862915,178 6,178 C9.3137085,178 12,180.686292 12,184 C12,187.313708 9.3137085,190 6,190 Z M37,190 C33.6862915,190 31,187.313708 31,184 C31,180.686292 33.6862915,178 37,178 C40.3137085,178 43,180.686292 43,184 C43,187.313708 40.3137085,190 37,190 Z M68,190 C64.6862915,190 62,187.313708 62,184 C62,180.686292 64.6862915,178 68,178 C71.3137085,178 74,180.686292 74,184 C74,187.313708 71.3137085,190 68,190 Z M99,190 C95.6862915,190 93,187.313708 93,184 C93,180.686292 95.6862915,178 99,178 C102.313708,178 105,180.686292 105,184 C105,187.313708 102.313708,190 99,190 Z M129,190 C125.686292,190 123,187.313708 123,184 C123,180.686292 125.686292,178 129,178 C132.313708,178 135,180.686292 135,184 C135,187.313708 132.313708,190 129,190 Z M162,190 C158.686292,190 156,187.313708 156,184 C156,180.686292 158.686292,178 162,178 C165.313708,178 168,180.686292 168,184 C168,187.313708 165.313708,190 162,190 Z M6,229 C2.6862915,229 0,226.313708 0,223 C0,219.686292 2.6862915,217 6,217 C9.3137085,217 12,219.686292 12,223 C12,226.313708 9.3137085,229 6,229 Z M37,229 C33.6862915,229 31,226.313708 31,223 C31,219.686292 33.6862915,217 37,217 C40.3137085,217 43,219.686292 43,223 C43,226.313708 40.3137085,229 37,229 Z M68,229 C64.6862915,229 62,226.313708 62,223 C62,219.686292 64.6862915,217 68,217 C71.3137085,217 74,219.686292 74,223 C74,226.313708 71.3137085,229 68,229 Z M99,229 C95.6862915,229 93,226.313708 93,223 C93,219.686292 95.6862915,217 99,217 C102.313708,217 105,219.686292 105,223 C105,226.313708 102.313708,229 99,229 Z M129,229 C125.686292,229 123,226.313708 123,223 C123,219.686292 125.686292,217 129,217 C132.313708,217 135,219.686292 135,223 C135,226.313708 132.313708,229 129,229 Z M162,229 C158.686292,229 156,226.313708 156,223 C156,219.686292 158.686292,217 162,217 C165.313708,217 168,219.686292 168,223 C168,226.313708 165.313708,229 162,229 Z M6,267 C2.6862915,267 0,264.313708 0,261 C0,257.686292 2.6862915,255 6,255 C9.3137085,255 12,257.686292 12,261 C12,264.313708 9.3137085,267 6,267 Z M37,267 C33.6862915,267 31,264.313708 31,261 C31,257.686292 33.6862915,255 37,255 C40.3137085,255 43,257.686292 43,261 C43,264.313708 40.3137085,267 37,267 Z M68,267 C64.6862915,267 62,264.313708 62,261 C62,257.686292 64.6862915,255 68,255 C71.3137085,255 74,257.686292 74,261 C74,264.313708 71.3137085,267 68,267 Z M99,267 C95.6862915,267 93,264.313708 93,261 C93,257.686292 95.6862915,255 99,255 C102.313708,255 105,257.686292 105,261 C105,264.313708 102.313708,267 99,267 Z M129,267 C125.686292,267 123,264.313708 123,261 C123,257.686292 125.686292,255 129,255 C132.313708,255 135,257.686292 135,261 C135,264.313708 132.313708,267 129,267 Z M162,267 C158.686292,267 156,264.313708 156,261 C156,257.686292 158.686292,255 162,255 C165.313708,255 168,257.686292 168,261 C168,264.313708 165.313708,267 162,267 Z M6,307 C2.6862915,307 0,304.313708 0,301 C0,297.686292 2.6862915,295 6,295 C9.3137085,295 12,297.686292 12,301 C12,304.313708 9.3137085,307 6,307 Z M37,307 C33.6862915,307 31,304.313708 31,301 C31,297.686292 33.6862915,295 37,295 C40.3137085,295 43,297.686292 43,301 C43,304.313708 40.3137085,307 37,307 Z M68,307 C64.6862915,307 62,304.313708 62,301 C62,297.686292 64.6862915,295 68,295 C71.3137085,295 74,297.686292 74,301 C74,304.313708 71.3137085,307 68,307 Z M99,307 C95.6862915,307 93,304.313708 93,301 C93,297.686292 95.6862915,295 99,295 C102.313708,295 105,297.686292 105,301 C105,304.313708 102.313708,307 99,307 Z M129,307 C125.686292,307 123,304.313708 123,301 C123,297.686292 125.686292,295 129,295 C132.313708,295 135,297.686292 135,301 C135,304.313708 132.313708,307 129,307 Z M162,307 C158.686292,307 156,304.313708 156,301 C156,297.686292 158.686292,295 162,295 C165.313708,295 168,297.686292 168,301 C168,304.313708 165.313708,307 162,307 Z M6,344 C2.6862915,344 0,341.313708 0,338 C0,334.686292 2.6862915,332 6,332 C9.3137085,332 12,334.686292 12,338 C12,341.313708 9.3137085,344 6,344 Z M37,344 C33.6862915,344 31,341.313708 31,338 C31,334.686292 33.6862915,332 37,332 C40.3137085,332 43,334.686292 43,338 C43,341.313708 40.3137085,344 37,344 Z M68,344 C64.6862915,344 62,341.313708 62,338 C62,334.686292 64.6862915,332 68,332 C71.3137085,332 74,334.686292 74,338 C74,341.313708 71.3137085,344 68,344 Z M99,344 C95.6862915,344 93,341.313708 93,338 C93,334.686292 95.6862915,332 99,332 C102.313708,332 105,334.686292 105,338 C105,341.313708 102.313708,344 99,344 Z M129,344 C125.686292,344 123,341.313708 123,338 C123,334.686292 125.686292,332 129,332 C132.313708,332 135,334.686292 135,338 C135,341.313708 132.313708,344 129,344 Z M162,344 C158.686292,344 156,341.313708 156,338 C156,334.686292 158.686292,332 162,332 C165.313708,332 168,334.686292 168,338 C168,341.313708 165.313708,344 162,344 Z M6,384 C2.6862915,384 0,381.313708 0,378 C0,374.686292 2.6862915,372 6,372 C9.3137085,372 12,374.686292 12,378 C12,381.313708 9.3137085,384 6,384 Z M37,384 C33.6862915,384 31,381.313708 31,378 C31,374.686292 33.6862915,372 37,372 C40.3137085,372 43,374.686292 43,378 C43,381.313708 40.3137085,384 37,384 Z M68,384 C64.6862915,384 62,381.313708 62,378 C62,374.686292 64.6862915,372 68,372 C71.3137085,372 74,374.686292 74,378 C74,381.313708 71.3137085,384 68,384 Z M99,384 C95.6862915,384 93,381.313708 93,378 C93,374.686292 95.6862915,372 99,372 C102.313708,372 105,374.686292 105,378 C105,381.313708 102.313708,384 99,384 Z M129,384 C125.686292,384 123,381.313708 123,378 C123,374.686292 125.686292,372 129,372 C132.313708,372 135,374.686292 135,378 C135,381.313708 132.313708,384 129,384 Z M162,384 C158.686292,384 156,381.313708 156,378 C156,374.686292 158.686292,372 162,372 C165.313708,372 168,374.686292 168,378 C168,381.313708 165.313708,384 162,384 Z" id="Combined-Shape"></path>
                    </g>
                </g>
            </g>
        </g>
    </g>
</svg>