<?xml version="1.0" encoding="UTF-8"?>
<svg width="32px" height="36px" viewBox="0 0 32 36" version="1.1" xmlns="http://www.w3.org/2000/svg" xmlns:xlink="http://www.w3.org/1999/xlink">
    <!-- Generator: Sketch 50 (54983) - http://www.bohemiancoding.com/sketch -->
    <title>Icon</title>
    <desc>Created with Sketch.</desc>
    <defs></defs>
    <g id="Page-1" stroke="none" stroke-width="1" fill="none" fill-rule="evenodd">
        <g id="01_AXON_Family_Office_Home" transform="translate(-1801.000000, -3321.000000)" fill="#142E4F" fill-rule="nonzero">
            <g id="Footer" transform="translate(98.000000, 3270.000000)">
                <g id="Right_Contents" transform="translate(1471.000000, 50.000000)">
                    <g id="Address" transform="translate(18.000000, 0.000000)">
                        <g id="Icon" transform="translate(214.000000, 1.000000)">
                            <path d="M15.8203125,10.6171875 C15.2387578,10.6171875 14.765625,10.1440547 14.765625,9.5625 C14.765625,9.13767187 15.0184688,8.75615625 15.4096172,8.59042969 C15.8819062,8.39046094 16.4470781,8.56110937 16.9606406,9.05864063 C17.3790703,9.46399219 18.0466172,9.453375 18.4520391,9.03508594 C18.8573203,8.61672656 18.8467734,7.94903906 18.4284141,7.54375781 C17.9523281,7.0824375 17.4229453,6.75639844 16.875,6.57239062 L16.875,5.34375 C16.875,4.76128125 16.4027812,4.2890625 15.8203125,4.2890625 C15.2378437,4.2890625 14.765625,4.76128125 14.765625,5.34375 L14.765625,6.57921094 C14.7057891,6.60051562 14.6461641,6.62301563 14.5870313,6.64804688 C13.4140781,7.14480469 12.65625,8.28878906 12.65625,9.5625 C12.65625,11.3071641 14.0756484,12.7265625 15.8203125,12.7265625 C16.4018672,12.7265625 16.875,13.1996953 16.875,13.78125 C16.875,14.2232344 16.5962109,14.6216953 16.1812969,14.7728672 C15.6398906,14.9702344 15.0089063,14.702625 14.4511875,14.0385234 C14.0766328,13.5925313 13.4114063,13.5345938 12.9652031,13.9092188 C12.5191406,14.2838438 12.4612734,14.9491406 12.8358984,15.3952031 C13.4060625,16.074 14.0698125,16.5395391 14.765625,16.7738906 L14.765625,18 C14.765625,18.5824687 15.2378437,19.0546875 15.8203125,19.0546875 C16.4027812,19.0546875 16.875,18.5824687 16.875,18 L16.875,16.7643984 C16.8844219,16.7610938 16.8938437,16.7582109 16.9031953,16.7548359 C18.1480078,16.3014609 18.984375,15.1064297 18.984375,13.78125 C18.984375,12.0365859 17.5649766,10.6171875 15.8203125,10.6171875 Z" id="Shape"></path>
                            <path d="M27.8976094,25.3968047 C26.1808594,24.6126094 23.9890078,24.0219844 21.4856719,23.6636016 L25.2434531,18.4408594 C26.6685469,16.4601563 27.421875,14.1195234 27.421875,11.671875 C27.421875,5.23596094 22.2174141,0 15.8203125,0 C9.42321094,0 4.21875,5.23596094 4.21875,11.671875 C4.21875,14.1193828 4.97207812,16.4600859 6.39717187,18.4408594 L10.1549531,23.6636016 C7.65161719,24.0220547 5.45969531,24.6126797 3.74301562,25.3968047 C0.649335937,26.8099453 0,28.4634141 0,29.6015625 C0,30.9380625 0.87075,32.8479609 5.01897656,34.3567266 C7.93230469,35.4164063 11.7683438,36 15.8203125,36 C19.8722813,36 23.7083203,35.4164063 26.6216484,34.3567266 C30.769875,32.8479609 31.640625,30.9380625 31.640625,29.6015625 C31.640625,28.4634141 30.9912891,26.8099453 27.8976094,25.3968047 Z M8.10942188,17.2089141 C6.94413281,15.5891953 6.328125,13.6745156 6.328125,11.671875 C6.328125,6.39907031 10.5863203,2.109375 15.8203125,2.109375 C21.0543047,2.109375 25.3125,6.39907031 25.3125,11.671875 C25.3125,13.6745859 24.6964922,15.5892656 23.5312031,17.2088437 L15.8203125,27.9258047 L8.10942188,17.2089141 Z M15.8203125,33.890625 C7.45059375,33.890625 2.109375,31.350375 2.109375,29.6015625 C2.109375,28.8881016 3.04776563,28.0334531 4.61946094,27.3154922 C6.37129688,26.5152656 8.81725781,25.9164844 11.557125,25.6123828 L14.9641875,30.3476484 C15.384375,30.9317344 16.2557578,30.9323672 16.6764375,30.3476484 L20.0835,25.6123828 C22.8234375,25.9164141 25.2693984,26.5152656 27.0211641,27.3154922 C28.5928594,28.0334531 29.53125,28.8881016 29.53125,29.6015625 C29.53125,31.350375 24.1900313,33.890625 15.8203125,33.890625 Z" id="Shape"></path>
                        </g>
                    </g>
                </g>
            </g>
        </g>
    </g>
</svg>