<?xml version="1.0" encoding="UTF-8"?>
<svg width="41px" height="40px" viewBox="0 0 41 40" version="1.1" xmlns="http://www.w3.org/2000/svg" xmlns:xlink="http://www.w3.org/1999/xlink">
    <!-- Generator: Sketch 50 (54983) - http://www.bohemiancoding.com/sketch -->
    <title>Instagram</title>
    <desc>Created with Sketch.</desc>
    <defs></defs>
    <g id="Page-1" stroke="none" stroke-width="1" fill="none" fill-rule="evenodd">
        <g id="01_AXON_Family_Office_Home" transform="translate(-1643.000000, -3442.000000)">
            <g id="Footer" transform="translate(98.000000, 3270.000000)">
                <g id="Right_Contents" transform="translate(1471.000000, 50.000000)">
                    <g id="Socials" transform="translate(0.000000, 122.000000)">
                        <g id="Instagram" transform="translate(73.645752, 0.000000)">
                            <path d="M1,20 C1,8.95430446 9.95430446,0 21,0 C32.0456955,0 41,8.95430446 41,20 C41,31.0456955 32.0456955,40 21,40 C9.95430446,40 1,31.0456955 1,20 Z" id="Combined-Shape" fill="#142E4F"></path>
                            <path d="M19.6671815,11.0027334 C19.9832601,11.0022778 20.3359425,11.0027334 20.7321537,11.0027334 C23.9018432,11.0027334 24.2775265,11.0132112 25.5292274,11.0656007 C26.6866983,11.1143456 27.3148983,11.2924697 27.7333686,11.4421213 C28.2873717,11.64029 28.6823463,11.8771814 29.0976013,12.259852 C29.5131037,12.6425227 29.7703194,13.0069709 29.985985,13.5171984 C30.1484761,13.9021469 30.3421298,14.4807085 30.3948096,15.5467196 C30.4516939,16.6992871 30.46406,17.045513 30.46406,19.9633767 C30.46406,22.8812404 30.4516939,23.2274663 30.3948096,24.3800338 C30.3418825,25.4460449 30.1484761,26.0246065 29.985985,26.409555 C29.7708141,26.9197825 29.5131037,27.2830918 29.0976013,27.6655347 C28.682099,28.0482054 28.287619,28.2850967 27.7333686,28.4832655 C27.315393,28.6336004 26.6866983,28.8112689 25.5292274,28.8600138 C24.2777739,28.9124033 23.9018432,28.9237923 20.7321537,28.9237923 C17.5622169,28.9237923 17.1865335,28.9124033 15.9350799,28.8600138 C14.777609,28.8108133 14.149409,28.6326892 13.7306915,28.4830377 C13.1766883,28.2848689 12.7809718,28.0479776 12.3654694,27.6653069 C11.949967,27.2826363 11.6927513,26.9190992 11.4770858,26.4086438 C11.3145946,26.0236954 11.1209409,25.4451338 11.0682611,24.3791227 C11.0113769,23.2265551 11,22.8803293 11,19.9606433 C11,17.0409574 11.0113769,16.6965538 11.0682611,15.5439862 C11.1211882,14.4779751 11.3145946,13.8994135 11.4770858,13.5140095 C11.6922566,13.003782 11.949967,12.6393337 12.3654694,12.2566631 C12.7809718,11.8739924 13.1766883,11.6371011 13.7306915,11.4384768 C14.1491617,11.2881419 14.777609,11.1104734 15.9350799,11.0615006 C17.0302254,11.0159446 17.4546314,11.0022778 19.6671815,11 L19.6671815,11.0027334 Z M27.0690594,12.8181412 C26.2825728,12.8181412 25.6444799,13.4051306 25.6444799,14.1296993 C25.6444799,14.8540401 26.2825728,15.4417129 27.0690594,15.4417129 C27.855546,15.4417129 28.493639,14.8540401 28.493639,14.1296993 C28.493639,13.4053584 27.855546,12.8176856 27.0690594,12.8176856 L27.0690594,12.8181412 Z M20.7321537,14.3511016 C17.3653479,14.3511016 14.6356457,16.8651111 14.6356457,19.9658823 C14.6356457,23.0666535 17.3653479,25.5795241 20.7321537,25.5795241 C24.0989595,25.5795241 26.8276723,23.0666535 26.8276723,19.9658823 C26.8276723,16.8651111 24.0987121,14.3511016 20.7319063,14.3511016 L20.7321537,14.3511016 Z M20.7321537,16.3213999 C22.9174983,16.3213999 24.6893191,17.9529891 24.6893191,19.9658823 C24.6893191,21.9785477 22.9174983,23.6103647 20.7321537,23.6103647 C18.5465617,23.6103647 16.7749883,21.9785477 16.7749883,19.9658823 C16.7749883,17.9529891 18.5465617,16.3213999 20.7321537,16.3213999 Z" id="Combined-Shape" stroke="#FFFFFF"></path>
                        </g>
                    </g>
                </g>
            </g>
        </g>
    </g>
</svg>