<?xml version="1.0" encoding="UTF-8"?>
<svg width="40px" height="40px" viewBox="0 0 40 40" version="1.1" xmlns="http://www.w3.org/2000/svg" xmlns:xlink="http://www.w3.org/1999/xlink">
    <!-- Generator: Sketch 50 (54983) - http://www.bohemiancoding.com/sketch -->
    <title>Dribbble</title>
    <desc>Created with Sketch.</desc>
    <defs></defs>
    <g id="Page-1" stroke="none" stroke-width="1" fill="none" fill-rule="evenodd">
        <g id="01_AXON_Family_Office_Home" transform="translate(-1569.000000, -3442.000000)">
            <g id="Footer" transform="translate(98.000000, 3270.000000)">
                <g id="Right_Contents" transform="translate(1471.000000, 50.000000)">
                    <g id="Socials" transform="translate(0.000000, 122.000000)">
                        <g id="Dribbble">
                            <path d="M0,20 C0,8.95430446 8.95430446,0 20,0 C31.0456955,0 40,8.95430446 40,20 C40,31.0456955 31.0456955,40 20,40 C8.95430446,40 0,31.0456955 0,20 Z" id="Combined-Shape" fill="#142E4F"></path>
                            <path d="M22.319558,18.0893085 C26.3223038,16.5858965 27.9483263,14.4251744 27.9674702,14.400176 C29.3899728,15.9882836 30.2496821,18.0167916 30.2728685,20.2270406 C30.1261762,20.19935 26.6950056,19.5212292 23.212258,19.9242814 C23.1409795,19.7643767 23.0679354,19.6044292 22.9931255,19.4412769 C22.7827286,18.9864757 22.5548605,18.5339394 22.319558,18.0893085 Z M25.8034672,28.0553209 C25.7002667,27.4934323 25.159963,24.7564208 23.8301596,21.3956441 C27.1025102,20.9131523 29.9389192,21.7389564 30.1475969,21.8007902 C29.6966003,24.3992632 28.0798709,26.6425871 25.8034672,28.0553209 Z M21.9305467,21.8274979 C23.3571382,25.2372887 23.9460916,28.0926263 24.0962225,28.9072344 C22.8794703,29.3832308 21.5421395,29.6461207 20.1381767,29.6461207 C17.7869632,29.6461207 15.6282108,28.903474 13.9070836,27.6725404 C13.9282185,27.6303509 15.8816205,23.7655135 21.8633107,21.8477531 C21.885382,21.8403177 21.9079643,21.8343779 21.9305467,21.8274979 Z M26.8335665,13.3254129 C26.8086143,13.3595133 25.3646446,15.3810987 21.5392586,16.6999921 C19.8054355,13.7721803 17.9011295,11.4489041 17.7492795,11.2612233 C18.5150351,11.0917038 19.3144319,11 20.1381767,11 C22.7050379,11 25.0486775,11.8779803 26.8335665,13.3254129 Z M20.4169713,18.6981601 C20.7073822,19.2216749 20.985108,19.752668 21.2395545,20.28255 C21.1062442,20.3177188 20.9717259,20.3539986 20.8395773,20.394509 C15.3685137,22.0215459 12.59409,26.5481912 12.597575,26.5530199 C10.9825648,24.9019247 10,22.718298 10,20.3230603 C10,20.2228101 10.0052042,20.1258075 10.0081315,20.0256 C10.1878146,20.0319671 15.1969157,20.1353796 20.4169713,18.6981601 Z M15.8125404,11.8897317 C15.9476164,12.0555762 17.8223236,14.3953472 19.5770098,17.2624362 C14.709397,18.4518504 10.4846378,18.4027936 10.2173668,18.400657 C10.8753219,15.5133128 12.9853782,13.1175196 15.8125404,11.8897317 Z" id="Combined-Shape" stroke="#FFFFFF"></path>
                        </g>
                    </g>
                </g>
            </g>
        </g>
    </g>
</svg>