<?xml version="1.0" encoding="UTF-8"?>
<svg width="41px" height="40px" viewBox="0 0 41 40" version="1.1" xmlns="http://www.w3.org/2000/svg" xmlns:xlink="http://www.w3.org/1999/xlink">
    <!-- Generator: Sketch 50 (54983) - http://www.bohemiancoding.com/sketch -->
    <title>Behance</title>
    <desc>Created with Sketch.</desc>
    <defs></defs>
    <g id="Page-1" stroke="none" stroke-width="1" fill="none" fill-rule="evenodd">
        <g id="01_AXON_Family_Office_Home" transform="translate(-1718.000000, -3442.000000)">
            <g id="Footer" transform="translate(98.000000, 3270.000000)">
                <g id="Right_Contents" transform="translate(1471.000000, 50.000000)">
                    <g id="Socials" transform="translate(0.000000, 122.000000)">
                        <g id="Behance" transform="translate(148.291503, 0.000000)">
                            <path d="M1,20 C1,8.95430446 9.95430446,0 21,0 C32.0456955,0 41,8.95430446 41,20 C41,31.0456955 32.0456955,40 21,40 C9.95430446,40 1,31.0456955 1,20 Z" id="back" fill="#142E4F"></path>
                            <g id="Group-2" transform="translate(9.000000, 13.000000)" stroke="#FFFFFF">
                                <path d="M15.9017676,2.94719258 L15.9017676,1.28816705 L22.2735897,1.28816705 L22.2735897,2.94719258 L15.9017676,2.94719258 Z M3.49057864,2.98143852 L6.727419,2.98143852 C7.43901458,2.98143852 8.02470161,3.05119876 8.48589477,3.18945089 C9.01782308,3.38985305 9.28378724,3.79953596 9.28378724,4.42230472 C9.28378724,4.9803867 9.08148471,5.37104408 8.67970907,5.59174014 C8.27510403,5.81243619 7.75024923,5.92278422 7.10655939,5.92278422 L3.49057864,5.92278422 L3.49057864,2.98143852 Z M17.4112557,6.56711524 C17.8172754,6.19167827 18.3916448,6.00395978 19.1272904,6.00395978 C19.8063478,6.00395978 20.3736437,6.18026295 20.8348368,6.53413766 C21.2903712,6.89054911 21.5478471,7.40804331 21.6001911,8.0929621 L16.6444867,8.0929621 C16.7491747,7.45116783 17.005236,6.9425522 17.4112557,6.56711524 Z M3.49057864,8.12847641 L7.15182989,8.12847641 C7.78844621,8.13354988 8.28500695,8.20965197 8.63868269,8.35424594 C9.27105491,8.61426141 9.58511896,9.08989946 9.58511896,9.7849652 C9.58511896,10.604331 9.25973729,11.1573395 8.60755922,11.4490642 C8.24963938,11.6050735 7.74600513,11.6837123 7.10090058,11.6837123 L3.49057864,11.6837123 L3.49057864,8.12847641 Z" id="Combined-Shape"></path>
                                <path d="M21.7119527,4.33986079 C22.4801364,4.64680588 23.1125086,5.13385924 23.610484,5.79848415 C24.0646037,6.38447022 24.3560325,7.06431555 24.4890146,7.83675174 C24.5668232,8.2882908 24.5979467,8.94276875 24.5852144,9.79384377 L16.5737516,9.79384377 C16.6218515,10.7819026 17.0009918,11.4756999 17.7253198,11.8726991 C18.1638777,12.1200309 18.6915619,12.244331 19.3112018,12.244331 C19.9633798,12.244331 20.4967228,12.0933952 20.905572,11.792792 C21.1305098,11.6291725 21.3285682,11.4034029 21.4983325,11.114215 L24.4338412,11.114215 C24.3560325,11.6976643 23.9995274,12.292529 23.3685698,12.8962722 C22.3839366,13.8538902 21.0046012,14.3333333 19.2319784,14.3333333 C17.7677608,14.3333333 16.476137,13.9299923 15.3599364,13.1207734 C14.238077,12.3128229 13.680684,10.9962568 13.680684,9.17488012 C13.680684,7.46638824 14.185733,6.15616396 15.1944162,5.24420727 C16.2059288,4.33478732 17.514529,3.87690642 19.1258757,3.87690642 C20.0836296,3.87690642 20.9451837,4.03164733 21.7119527,4.33986079 L21.7119527,4.33986079 L21.7119527,4.33986079 Z" id="Behance"></path>
                                <path d="M11.5657031,2.08723898 C12.0198227,2.65419954 12.2475899,3.33150812 12.2475899,4.12170147 C12.2475899,4.93472544 12.0198227,5.59047177 11.5600443,6.08513534 C11.3025683,6.3616396 10.9248427,6.61531323 10.4254525,6.84361949 C11.1837333,7.09221964 11.7552733,7.4841454 12.1443166,8.02066512 C12.5291158,8.55591647 12.7229301,9.2078577 12.7229301,9.97395205 C12.7229301,10.7641454 12.5022365,11.4731632 12.0594344,12.099737 C11.7793232,12.5144934 11.4284769,12.864563 11.0068954,13.1486775 C10.5329699,13.4746481 9.97416228,13.6966125 9.32764303,13.8183759 C8.68112378,13.9388708 7.98226052,13.9972158 7.22680914,13.9972158 L0.526775956,13.9972158 L0.526775956,0.666666667 L7.71205225,0.666666667 C9.52570144,0.690765661 10.808837,1.16386698 11.5657031,2.08723898 L11.5657031,2.08723898 L11.5657031,2.08723898 Z" id="Behance"></path>
                            </g>
                        </g>
                    </g>
                </g>
            </g>
        </g>
    </g>
</svg>